REM DIRINDEX 1\2,1\3,1\4,1\5
REM DIRNAME cjc044,folder01,folder02,folder03,folder04
TITLE ""
FILE "1800_157.mp3" MP3
  TRACK 01 AUDIO
    TITLE "2:cjc044_5028"
    INDEX 01 00:00:00
  TRACK 02 AUDIO
    TITLE "0:"
    INDEX 01 00:01:13
  TRACK 03 AUDIO
    TITLE "3:cjc044_5029"
    INDEX 01 00:02:00
  TRACK 04 AUDIO
    TITLE "0:"
    INDEX 01 00:03:29
  TRACK 05 AUDIO
    TITLE "4:cjc044_5030"
    INDEX 01 00:04:13
  TRACK 06 AUDIO
    TITLE "0:"
    INDEX 01 00:05:40
  TRACK 07 AUDIO
    TITLE "2:cjc044_5031"
    INDEX 01 00:07:29
  TRACK 08 AUDIO
    TITLE "0:"
    INDEX 01 00:08:40
  TRACK 09 AUDIO
    TITLE "3:cjc044_5032"
    INDEX 01 00:09:22
  TRACK 10 AUDIO
    TITLE "0:"
    INDEX 01 00:11:17
  TRACK 11 AUDIO
    TITLE "4:cjc044_5033"
    INDEX 01 00:12:01
  TRACK 12 AUDIO
    TITLE "0:"
    INDEX 01 00:13:14
  TRACK 13 AUDIO
    TITLE "2:cjc044_5034"
    INDEX 01 00:14:70
  TRACK 14 AUDIO
    TITLE "0:"
    INDEX 01 00:16:28
  TRACK 15 AUDIO
    TITLE "3:cjc044_5035"
    INDEX 01 00:17:12
  TRACK 16 AUDIO
    TITLE "0:"
    INDEX 01 00:18:31
  TRACK 17 AUDIO
    TITLE "4:cjc044_5036"
    INDEX 01 00:19:26
  TRACK 18 AUDIO
    TITLE "0:"
    INDEX 01 00:20:59
  TRACK 19 AUDIO
    TITLE "2:cjc044_5037"
    INDEX 01 00:22:44
  TRACK 20 AUDIO
    TITLE "0:"
    INDEX 01 00:23:67
  TRACK 21 AUDIO
    TITLE "3:cjc044_5038"
    INDEX 01 00:24:49
  TRACK 22 AUDIO
    TITLE "0:"
    INDEX 01 00:25:68
  TRACK 23 AUDIO
    TITLE "4:cjc044_5039"
    INDEX 01 00:26:50
  TRACK 24 AUDIO
    TITLE "0:"
    INDEX 01 00:27:73
  TRACK 25 AUDIO
    TITLE "2:cjc044_5040"
    INDEX 01 00:29:58
  TRACK 26 AUDIO
    TITLE "0:"
    INDEX 01 00:31:02
  TRACK 27 AUDIO
    TITLE "3:cjc044_5041"
    INDEX 01 00:31:67
  TRACK 28 AUDIO
    TITLE "0:"
    INDEX 01 00:33:13
  TRACK 29 AUDIO
    TITLE "4:cjc044_5042"
    INDEX 01 00:34:00
  TRACK 30 AUDIO
    TITLE "0:"
    INDEX 01 00:35:19
  TRACK 31 AUDIO
    TITLE "2:cjc044_5043"
    INDEX 01 00:37:05
  TRACK 32 AUDIO
    TITLE "0:"
    INDEX 01 00:38:45
  TRACK 33 AUDIO
    TITLE "3:cjc044_5044"
    INDEX 01 00:39:33
  TRACK 34 AUDIO
    TITLE "0:"
    INDEX 01 00:40:56
  TRACK 35 AUDIO
    TITLE "4:cjc044_5045"
    INDEX 01 00:41:53
  TRACK 36 AUDIO
    TITLE "0:"
    INDEX 01 00:43:13
  TRACK 37 AUDIO
    TITLE "2:cjc044_5046"
    INDEX 01 00:45:00
  TRACK 38 AUDIO
    TITLE "0:"
    INDEX 01 00:46:23
  TRACK 39 AUDIO
    TITLE "3:cjc044_5047"
    INDEX 01 00:47:11
  TRACK 40 AUDIO
    TITLE "0:"
    INDEX 01 00:48:26
  TRACK 41 AUDIO
    TITLE "4:cjc044_5048"
    INDEX 01 00:49:20
  TRACK 42 AUDIO
    TITLE "0:"
    INDEX 01 00:50:46
  TRACK 43 AUDIO
    TITLE "2:cjc044_5049"
    INDEX 01 00:52:39
  TRACK 44 AUDIO
    TITLE "0:"
    INDEX 01 00:53:62
  TRACK 45 AUDIO
    TITLE "3:cjc044_5050"
    INDEX 01 00:54:54
  TRACK 46 AUDIO
    TITLE "0:"
    INDEX 01 00:55:53
  TRACK 47 AUDIO
    TITLE "4:cjc044_5051"
    INDEX 01 00:56:45
  TRACK 48 AUDIO
    TITLE "0:"
    INDEX 01 00:57:68
  TRACK 49 AUDIO
    TITLE "2:cjc044_5052"
    INDEX 01 00:59:55
  TRACK 50 AUDIO
    TITLE "0:"
    INDEX 01 01:01:11
  TRACK 51 AUDIO
    TITLE "3:cjc044_5053"
    INDEX 01 01:01:70
  TRACK 52 AUDIO
    TITLE "0:"
    INDEX 01 01:03:04
  TRACK 53 AUDIO
    TITLE "4:cjc044_5054"
    INDEX 01 01:04:00
  TRACK 54 AUDIO
    TITLE "0:"
    INDEX 01 01:05:32
  TRACK 55 AUDIO
    TITLE "2:cjc044_5055"
    INDEX 01 01:07:17
  TRACK 56 AUDIO
    TITLE "0:"
    INDEX 01 01:08:50
  TRACK 57 AUDIO
    TITLE "3:cjc044_5056"
    INDEX 01 01:09:40
  TRACK 58 AUDIO
    TITLE "0:"
    INDEX 01 01:10:61
  TRACK 59 AUDIO
    TITLE "4:cjc044_5057"
    INDEX 01 01:11:52
  TRACK 60 AUDIO
    TITLE "0:"
    INDEX 01 01:13:14
  TRACK 61 AUDIO
    TITLE "2:cjc044_5058"
    INDEX 01 01:14:72
  TRACK 62 AUDIO
    TITLE "0:"
    INDEX 01 01:16:34
  TRACK 63 AUDIO
    TITLE "3:cjc044_5059"
    INDEX 01 01:17:06
  TRACK 64 AUDIO
    TITLE "0:"
    INDEX 01 01:18:31
  TRACK 65 AUDIO
    TITLE "4:cjc044_5060"
    INDEX 01 01:19:09
  TRACK 66 AUDIO
    TITLE "0:"
    INDEX 01 01:20:44
  TRACK 67 AUDIO
    TITLE "2:cjc044_5061"
    INDEX 01 01:22:23
  TRACK 68 AUDIO
    TITLE "0:"
    INDEX 01 01:23:44
  TRACK 69 AUDIO
    TITLE "3:cjc044_5062"
    INDEX 01 01:24:24
  TRACK 70 AUDIO
    TITLE "0:"
    INDEX 01 01:25:72
  TRACK 71 AUDIO
    TITLE "4:cjc044_5063"
    INDEX 01 01:26:52
  TRACK 72 AUDIO
    TITLE "0:"
    INDEX 01 01:27:73
  TRACK 73 AUDIO
    TITLE "2:cjc044_5064"
    INDEX 01 01:29:56
  TRACK 74 AUDIO
    TITLE "0:"
    INDEX 01 01:31:00
  TRACK 75 AUDIO
    TITLE "3:cjc044_5065"
    INDEX 01 01:31:49
  TRACK 76 AUDIO
    TITLE "0:"
    INDEX 01 01:32:68
  TRACK 77 AUDIO
    TITLE "4:cjc044_5066"
    INDEX 01 01:33:50
  TRACK 78 AUDIO
    TITLE "0:"
    INDEX 01 01:34:69
  TRACK 79 AUDIO
    TITLE "2:cjc044_5067"
    INDEX 01 01:36:48
  TRACK 80 AUDIO
    TITLE "0:"
    INDEX 01 01:37:71
  TRACK 81 AUDIO
    TITLE "3:cjc044_5068"
    INDEX 01 01:38:51
  TRACK 82 AUDIO
    TITLE "0:"
    INDEX 01 01:39:55
  TRACK 83 AUDIO
    TITLE "4:cjc044_5069"
    INDEX 01 01:40:48
  TRACK 84 AUDIO
    TITLE "0:"
    INDEX 01 01:42:00
  TRACK 85 AUDIO
    TITLE "2:cjc044_5070"
    INDEX 01 01:43:56
  TRACK 86 AUDIO
    TITLE "0:"
    INDEX 01 01:45:20
  TRACK 87 AUDIO
    TITLE "3:cjc044_5071"
    INDEX 01 01:46:00
  TRACK 88 AUDIO
    TITLE "0:"
    INDEX 01 01:47:13
  TRACK 89 AUDIO
    TITLE "4:cjc044_5072"
    INDEX 01 01:47:70
  TRACK 90 AUDIO
    TITLE "0:"
    INDEX 01 01:49:35
  TRACK 91 AUDIO
    TITLE "2:cjc044_5073"
    INDEX 01 01:51:17
  TRACK 92 AUDIO
    TITLE "0:"
    INDEX 01 01:52:40
  TRACK 93 AUDIO
    TITLE "3:cjc044_5074"
    INDEX 01 01:53:27
  TRACK 94 AUDIO
    TITLE "0:"
    INDEX 01 01:54:35
  TRACK 95 AUDIO
    TITLE "4:cjc044_5075"
    INDEX 01 01:55:28
  TRACK 96 AUDIO
    TITLE "0:"
    INDEX 01 01:56:53
  TRACK 97 AUDIO
    TITLE "2:cjc044_5076"
    INDEX 01 01:58:40
  TRACK 98 AUDIO
    TITLE "0:"
    INDEX 01 01:59:65
  TRACK 99 AUDIO
    TITLE "3:cjc044_5077"
    INDEX 01 02:00:57
  TRACK 100 AUDIO
    TITLE "0:"
    INDEX 01 02:02:36
  TRACK 101 AUDIO
    TITLE "4:cjc044_5078"
    INDEX 01 02:03:24
  TRACK 102 AUDIO
    TITLE "0:"
    INDEX 01 02:04:47
  TRACK 103 AUDIO
    TITLE "2:cjc044_5079"
    INDEX 01 02:06:32
  TRACK 104 AUDIO
    TITLE "0:"
    INDEX 01 02:07:49
  TRACK 105 AUDIO
    TITLE "3:cjc044_5080"
    INDEX 01 02:08:37
  TRACK 106 AUDIO
    TITLE "0:"
    INDEX 01 02:10:40
  TRACK 107 AUDIO
    TITLE "4:cjc044_5081"
    INDEX 01 02:11:29
  TRACK 108 AUDIO
    TITLE "0:"
    INDEX 01 02:12:46
